<svg width="238" height="60" viewBox="0 0 238 60" fill="none" xmlns="http://www.w3.org/2000/svg">
<path d="M16.5 0.879999C20.94 0.879999 24.82 1.76 28.14 3.52C31.46 5.28 34.02 7.76 35.82 10.96C37.66 14.12 38.58 17.78 38.58 21.94C38.58 26.06 37.66 29.72 35.82 32.92C34.02 36.12 31.44 38.6 28.08 40.36C24.76 42.12 20.9 43 16.5 43H0.72V0.879999H16.5ZM15.84 34.12C19.72 34.12 22.74 33.06 24.9 30.94C27.06 28.82 28.14 25.82 28.14 21.94C28.14 18.06 27.06 15.04 24.9 12.88C22.74 10.72 19.72 9.64 15.84 9.64H10.98V34.12H15.84ZM59.5538 43.48C56.2738 43.48 53.3138 42.78 50.6738 41.38C48.0738 39.98 46.0138 37.98 44.4938 35.38C43.0138 32.78 42.2738 29.74 42.2738 26.26C42.2738 22.82 43.0338 19.8 44.5537 17.2C46.0738 14.56 48.1538 12.54 50.7938 11.14C53.4338 9.74 56.3938 9.04 59.6738 9.04C62.9538 9.04 65.9138 9.74 68.5538 11.14C71.1938 12.54 73.2738 14.56 74.7938 17.2C76.3138 19.8 77.0738 22.82 77.0738 26.26C77.0738 29.7 76.2938 32.74 74.7338 35.38C73.2138 37.98 71.1138 39.98 68.4338 41.38C65.7938 42.78 62.8338 43.48 59.5538 43.48ZM59.5538 34.6C61.5138 34.6 63.1738 33.88 64.5338 32.44C65.9338 31 66.6338 28.94 66.6338 26.26C66.6338 23.58 65.9538 21.52 64.5938 20.08C63.2738 18.64 61.6338 17.92 59.6738 17.92C57.6738 17.92 56.0138 18.64 54.6938 20.08C53.3738 21.48 52.7138 23.54 52.7138 26.26C52.7138 28.94 53.3538 31 54.6338 32.44C55.9538 33.88 57.5938 34.6 59.5538 34.6ZM95.2369 9.04C97.5969 9.04 99.6569 9.52 101.417 10.48C103.217 11.44 104.597 12.7 105.557 14.26V9.52H115.817V42.94C115.817 46.02 115.197 48.8 113.957 51.28C112.757 53.8 110.897 55.8 108.377 57.28C105.897 58.76 102.797 59.5 99.0769 59.5C94.1169 59.5 90.0969 58.32 87.0169 55.96C83.9369 53.64 82.1769 50.48 81.7369 46.48H91.8769C92.1969 47.76 92.9569 48.76 94.1569 49.48C95.3569 50.24 96.8369 50.62 98.5969 50.62C100.717 50.62 102.397 50 103.637 48.76C104.917 47.56 105.557 45.62 105.557 42.94V38.2C104.557 39.76 103.177 41.04 101.417 42.04C99.6569 43 97.5969 43.48 95.2369 43.48C92.4769 43.48 89.9769 42.78 87.7369 41.38C85.4969 39.94 83.7169 37.92 82.3969 35.32C81.1169 32.68 80.4769 29.64 80.4769 26.2C80.4769 22.76 81.1169 19.74 82.3969 17.14C83.7169 14.54 85.4969 12.54 87.7369 11.14C89.9769 9.74 92.4769 9.04 95.2369 9.04ZM105.557 26.26C105.557 23.7 104.837 21.68 103.397 20.2C101.997 18.72 100.277 17.98 98.2369 17.98C96.1969 17.98 94.4569 18.72 93.0169 20.2C91.6169 21.64 90.9169 23.64 90.9169 26.2C90.9169 28.76 91.6169 30.8 93.0169 32.32C94.4569 33.8 96.1969 34.54 98.2369 34.54C100.277 34.54 101.997 33.8 103.397 32.32C104.837 30.84 105.557 28.82 105.557 26.26ZM139.02 0.879999C143.46 0.879999 147.34 1.76 150.66 3.52C153.98 5.28 156.54 7.76 158.34 10.96C160.18 14.12 161.1 17.78 161.1 21.94C161.1 26.06 160.18 29.72 158.34 32.92C156.54 36.12 153.96 38.6 150.6 40.36C147.28 42.12 143.42 43 139.02 43H123.24V0.879999H139.02ZM138.36 34.12C142.24 34.12 145.26 33.06 147.42 30.94C149.58 28.82 150.66 25.82 150.66 21.94C150.66 18.06 149.58 15.04 147.42 12.88C145.26 10.72 142.24 9.64 138.36 9.64H133.5V34.12H138.36ZM182.073 43.48C178.793 43.48 175.833 42.78 173.193 41.38C170.593 39.98 168.533 37.98 167.013 35.38C165.533 32.78 164.793 29.74 164.793 26.26C164.793 22.82 165.553 19.8 167.073 17.2C168.593 14.56 170.673 12.54 173.313 11.14C175.953 9.74 178.913 9.04 182.193 9.04C185.473 9.04 188.433 9.74 191.073 11.14C193.713 12.54 195.793 14.56 197.313 17.2C198.833 19.8 199.593 22.82 199.593 26.26C199.593 29.7 198.813 32.74 197.253 35.38C195.733 37.98 193.633 39.98 190.953 41.38C188.313 42.78 185.353 43.48 182.073 43.48ZM182.073 34.6C184.033 34.6 185.693 33.88 187.053 32.44C188.453 31 189.153 28.94 189.153 26.26C189.153 23.58 188.473 21.52 187.113 20.08C185.793 18.64 184.153 17.92 182.193 17.92C180.193 17.92 178.533 18.64 177.213 20.08C175.893 21.48 175.233 23.54 175.233 26.26C175.233 28.94 175.873 31 177.153 32.44C178.473 33.88 180.113 34.6 182.073 34.6ZM220.276 43.48C216.996 43.48 214.036 42.78 211.396 41.38C208.796 39.98 206.736 37.98 205.216 35.38C203.736 32.78 202.996 29.74 202.996 26.26C202.996 22.82 203.756 19.8 205.276 17.2C206.796 14.56 208.876 12.54 211.516 11.14C214.156 9.74 217.116 9.04 220.396 9.04C223.676 9.04 226.636 9.74 229.276 11.14C231.916 12.54 233.996 14.56 235.516 17.2C237.036 19.8 237.796 22.82 237.796 26.26C237.796 29.7 237.016 32.74 235.456 35.38C233.936 37.98 231.836 39.98 229.156 41.38C226.516 42.78 223.556 43.48 220.276 43.48ZM220.276 34.6C222.236 34.6 223.896 33.88 225.256 32.44C226.656 31 227.356 28.94 227.356 26.26C227.356 23.58 226.676 21.52 225.316 20.08C223.996 18.64 222.356 17.92 220.396 17.92C218.396 17.92 216.736 18.64 215.416 20.08C214.096 21.48 213.436 23.54 213.436 26.26C213.436 28.94 214.076 31 215.356 32.44C216.676 33.88 218.316 34.6 220.276 34.6Z" fill="white"/>
</svg>
