<svg width="360" height="311" viewBox="0 0 360 311" fill="none" xmlns="http://www.w3.org/2000/svg">
<g clip-path="url(#clip0_11_8)">
<path d="M164.595 282.012C166.622 297.446 178.176 278.476 178.176 278.476L191.959 275.903C191.959 275.903 200.676 276.225 206.351 283.299C212.027 290.372 215.878 281.048 215.878 281.048C222.273 284.429 230.107 284.415 236.892 283.332C246.668 281.772 254.505 269.802 255.849 254.361C263.428 167.262 221.757 124.458 221.757 124.458L209.595 72.3688C209.595 72.3688 213.446 57.2564 214.662 43.7518C215.878 30.2471 206.959 17.3855 196.014 4.52396C191.225 -1.10298 185.737 -0.698542 181.08 1.53685C175.854 4.04451 171.296 9.20125 167.928 16.0165C165.138 21.6627 160.352 29.6592 155.092 31.0445C153.272 31.5204 151.476 32.6651 149.797 34.7487C148.062 36.903 147.296 40.4978 147.272 44.9672C147.142 64.4911 157.305 87.9956 166.216 91.6611C177.162 96.1627 171.284 138.927 171.284 138.927C153.446 178.798 166.014 223.171 166.014 223.171L162.77 259.183C162.77 259.183 162.568 266.579 164.595 282.012H164.595Z" fill="#3F3D56"/>
<path d="M224.189 199.055L219.73 287.157C219.73 287.157 225.811 311.594 205.135 310.308C184.459 309.022 196.622 258.862 196.622 258.862L203.108 193.268" fill="#3F3D56"/>
<path d="M206.674 311C206.168 311 205.651 310.984 205.119 310.95C200.542 310.666 197.172 307.992 195.101 303.003C189.181 288.738 195.766 260.62 196.228 258.695L202.707 193.168C202.742 192.817 202.948 192.581 203.171 192.632C203.392 192.687 203.543 193.016 203.509 193.367L197.022 258.961C197.017 259.006 197.01 259.05 197 259.093C196.929 259.384 190.006 288.389 195.779 302.297C197.698 306.919 200.851 309.398 205.151 309.665C211.902 310.083 216.443 307.798 218.65 302.869C221.538 296.42 219.375 287.482 219.352 287.393C219.33 287.302 219.321 287.203 219.325 287.106L223.785 199.004C223.803 198.65 223.994 198.392 224.222 198.414C224.445 198.443 224.611 198.753 224.593 199.107L220.141 287.064C220.436 288.325 222.282 296.97 219.314 303.606C217.118 308.517 212.869 311 206.674 311Z" fill="#2F2E41"/>
<path d="M187.297 217.062C187.297 217.062 188.514 298.733 162.973 296.803C137.432 294.874 160.541 269.151 160.541 269.151L162.77 259.183" fill="#3F3D56"/>
<path d="M163.849 297.48C163.553 297.48 163.255 297.468 162.954 297.446C155.661 296.895 151.541 294.303 150.707 289.743C149.205 281.525 158.993 270.115 160.201 268.744L162.388 258.968C162.463 258.633 162.695 258.458 162.906 258.577C163.117 258.696 163.227 259.063 163.152 259.398L160.923 269.366C160.894 269.492 160.842 269.601 160.773 269.677C160.666 269.797 150.08 281.693 151.486 289.385C152.213 293.359 156.084 295.639 162.992 296.161C167.593 296.512 171.626 294.058 174.972 288.875C187.521 269.444 186.9 217.598 186.892 217.077C186.887 216.722 187.064 216.427 187.288 216.418C187.5 216.419 187.697 216.692 187.703 217.046C187.735 219.198 188.34 269.97 175.539 289.795C172.244 294.898 168.315 297.48 163.849 297.48Z" fill="#2F2E41"/>
<path d="M147.272 44.9671C150.182 45.5201 154.739 45.4944 158.513 41.5009C162.555 37.2244 158.359 33.2373 155.092 31.0444C153.272 31.5203 151.476 32.665 149.797 34.7486C148.062 36.9029 147.296 40.4977 147.272 44.9671Z" fill="#2F2E41"/>
<path d="M194.31 33.4039C194.31 33.4039 187.236 4.58341 197.368 4.18012C207.5 3.77684 215.503 28.7521 215.503 28.7521C215.503 28.7521 240.933 102.283 206.092 98.3181C171.251 94.3527 187.9 64.9997 187.9 64.9997C187.9 64.9997 195.846 49.502 194.31 33.4039H194.31V33.4039V33.4039Z" fill="#2F2E41"/>
<path d="M233.124 248.776C237.611 251.942 242.299 255.173 247.206 254.864C252.113 254.555 257.277 249.542 258.041 241.847C258.436 237.875 257.653 233.613 258.612 229.89C259.902 224.882 264.063 222.95 267.298 224.667C270.533 226.383 272.909 230.809 274.613 235.496C277.801 244.266 279.078 255.776 275.66 264.324C272.697 271.735 267.078 275.084 261.85 277.956C254.887 281.782 247.113 285.579 240.366 280.879C233.58 276.153 229.884 262.497 232.397 251.438" fill="#3F3D56"/>
<path d="M218.154 109.916C218.154 109.916 227.073 116.99 222.614 124.707C218.154 132.424 190.587 154.288 180.452 151.073C170.317 147.858 167.884 138.211 167.884 135.639C167.884 133.067 168.649 101.95 171.892 103.237C175.135 104.523 195.452 133.71 218.154 109.916Z" fill="#7003CA"/>
</g>
<defs>
<clipPath id="clip0_11_8">
<rect width="360" height="311" fill="white"/>
</clipPath>
</defs>
</svg>
